<svg data-v-fde0c5aa="" xmlns="http://www.w3.org/2000/svg" viewBox="0 0 300 300" class="iconLeft"><!----><defs data-v-fde0c5aa=""><!----></defs><rect data-v-fde0c5aa="" fill="transparent" x="0" y="0" width="300px" height="300px" class="logo-background-square"></rect><defs data-v-fde0c5aa=""><!----></defs><g data-v-fde0c5aa="" id="5630e92c-a4c3-4482-91ec-f7934e250847" fill="#000000" transform="matrix(1.7136593926971744,0,0,1.7136593926971744,73.34822729447285,134.2514700830566)"><path d="M4.12 14.52C6.41 14.52 7.67 13.31 7.67 11.51C7.67 10.12 6.92 9.11 5.15 8.79L4.12 8.61C2.91 8.41 2.49 7.97 2.49 7.17C2.49 6.22 3.12 5.71 4.27 5.71C5.35 5.71 6.06 6.15 6.59 6.80L7.57 5.82C6.90 4.94 5.81 4.41 4.27 4.41C2.20 4.41 0.91 5.40 0.91 7.24C0.91 8.54 1.57 9.65 3.42 9.95L4.48 10.12C5.66 10.32 6.09 10.75 6.09 11.59C6.09 12.63 5.40 13.22 4.17 13.22C3.12 13.22 2.30 12.80 1.55 11.91L0.55 12.88C1.29 13.86 2.42 14.52 4.12 14.52ZM16.23 14.35L16.23 13.15L15.32 13.15L15.32 9.52C15.32 7.87 14.20 6.96 12.38 6.96C10.85 6.96 9.87 7.62 9.46 8.40L10.37 9.14C10.77 8.54 11.31 8.15 12.24 8.15C13.27 8.15 13.79 8.65 13.79 9.62L13.79 10.18L12.40 10.18C10.26 10.18 9.24 10.93 9.24 12.33C9.24 13.69 10.19 14.52 11.66 14.52C12.80 14.52 13.55 14 13.83 13.13L13.90 13.13C13.99 13.86 14.42 14.35 15.29 14.35ZM12.10 13.40C11.28 13.40 10.78 13.06 10.78 12.42L10.78 12.14C10.78 11.49 11.31 11.14 12.43 11.14L13.79 11.14L13.79 12.19C13.79 12.91 13.08 13.40 12.10 13.40ZM18.72 14.35L18.72 9.11C18.72 8.46 19.08 8.13 19.59 8.13C20.13 8.13 20.34 8.47 20.34 9.46L20.34 14.35L21.64 14.35L21.64 9.11C21.64 8.46 22.01 8.13 22.50 8.13C23.04 8.13 23.27 8.47 23.27 9.46L23.27 14.35L24.57 14.35L24.57 9.27C24.57 7.77 24.18 6.96 23.07 6.96C22.20 6.96 21.77 7.48 21.52 8.13L21.46 8.13C21.35 7.41 20.93 6.96 20.17 6.96C19.39 6.96 19.01 7.45 18.79 8.06L18.72 8.06L18.72 7.13L17.42 7.13L17.42 14.35ZM29.85 5.81C30.60 5.81 30.88 5.45 30.88 4.98L30.88 4.69C30.88 4.23 30.60 3.86 29.83 3.86C29.08 3.86 28.80 4.23 28.80 4.69L28.80 4.98C28.80 5.45 29.08 5.81 29.85 5.81ZM26.61 14.35L32.91 14.35L32.91 13.12L30.60 13.12L30.60 7.13L26.61 7.13L26.61 8.36L29.08 8.36L29.08 13.12L26.61 13.12ZM34.66 14.35L40.73 14.35L40.73 13.12L38.11 13.12L38.11 10.42C38.11 9.41 38.77 8.58 40.01 8.58L41.44 8.58L41.44 7.13L40.57 7.13C39.10 7.13 38.47 8.04 38.19 9.04L38.11 9.04L38.11 7.13L34.66 7.13L34.66 8.36L36.58 8.36L36.58 13.12L34.66 13.12ZM56.63 14.35L58.02 14.35L58.02 4.58L56.21 4.58L54.70 8.46L54.60 8.46L53.10 4.58L51.18 4.58L51.18 14.35L52.57 14.35L52.57 9.67L52.53 6.73L52.64 6.73L54.60 11.76L56.56 6.73L56.67 6.73L56.63 9.67ZM64.50 14.35L66.02 14.35L66.02 7.13L64.50 7.13L64.50 12.03C64.50 12.87 63.71 13.27 62.93 13.27C61.95 13.27 61.43 12.70 61.43 11.55L61.43 7.13L59.91 7.13L59.91 11.77C59.91 13.52 60.89 14.52 62.34 14.52C63.53 14.52 64.12 13.87 64.43 13.12L64.50 13.12ZM68.31 14.35L69.83 14.35L69.83 13.12L69.92 13.12C70.34 13.99 71.04 14.52 72.10 14.52C73.79 14.52 74.89 13.22 74.89 10.74C74.89 8.26 73.79 6.96 72.10 6.96C71.04 6.96 70.34 7.49 69.92 8.36L69.83 8.36L69.83 3.99L68.31 3.99ZM71.47 13.27C70.59 13.27 69.83 12.82 69.83 11.94L69.83 9.53C69.83 8.65 70.59 8.20 71.47 8.20C72.62 8.20 73.28 8.97 73.28 10.15L73.28 11.33C73.28 12.50 72.62 13.27 71.47 13.27ZM83.43 14.35L83.43 13.15L82.52 13.15L82.52 9.52C82.52 7.87 81.40 6.96 79.58 6.96C78.05 6.96 77.07 7.62 76.66 8.40L77.57 9.14C77.97 8.54 78.51 8.15 79.44 8.15C80.47 8.15 80.99 8.65 80.99 9.62L80.99 10.18L79.60 10.18C77.46 10.18 76.44 10.93 76.44 12.33C76.44 13.69 77.39 14.52 78.86 14.52C80.00 14.52 80.75 14 81.03 13.13L81.10 13.13C81.19 13.86 81.62 14.35 82.49 14.35ZM79.30 13.40C78.48 13.40 77.98 13.06 77.98 12.42L77.98 12.14C77.98 11.49 78.51 11.14 79.63 11.14L80.99 11.14L80.99 12.19C80.99 12.91 80.28 13.40 79.30 13.40ZM85.06 14.35L91.13 14.35L91.13 13.12L88.51 13.12L88.51 10.42C88.51 9.41 89.17 8.58 90.41 8.58L91.84 8.58L91.84 7.13L90.97 7.13C89.50 7.13 88.87 8.04 88.59 9.04L88.51 9.04L88.51 7.13L85.06 7.13L85.06 8.36L86.98 8.36L86.98 13.12L85.06 13.12ZM100.23 14.35L100.23 13.15L99.32 13.15L99.32 9.52C99.32 7.87 98.20 6.96 96.38 6.96C94.85 6.96 93.87 7.62 93.46 8.40L94.37 9.14C94.77 8.54 95.31 8.15 96.24 8.15C97.27 8.15 97.79 8.65 97.79 9.62L97.79 10.18L96.40 10.18C94.26 10.18 93.24 10.93 93.24 12.33C93.24 13.69 94.19 14.52 95.66 14.52C96.80 14.52 97.55 14 97.83 13.13L97.90 13.13C97.99 13.86 98.42 14.35 99.29 14.35ZM96.10 13.40C95.28 13.40 94.78 13.06 94.78 12.42L94.78 12.14C94.78 11.49 95.31 11.14 96.43 11.14L97.79 11.14L97.79 12.19C97.79 12.91 97.08 13.40 96.10 13.40ZM102.03 14.35L103.56 14.35L103.56 11.77L104.57 10.84L107.09 14.35L108.92 14.35L105.67 9.97L108.60 7.13L106.79 7.13L104.76 9.09L103.63 10.25L103.56 10.25L103.56 3.99L102.03 3.99Z"></path></g><defs data-v-fde0c5aa=""><linearGradient data-v-fde0c5aa="" gradientTransform="rotate(25)" id="08bbe6e4-c2f3-43f6-866e-a046250bb7a3" x1="0%" y1="0%" x2="100%" y2="0%"><stop data-v-fde0c5aa="" offset="0%" stop-color="#FFFF38" stop-opacity="1"></stop><stop data-v-fde0c5aa="" offset="100%" stop-color="#FFBF01" stop-opacity="1"></stop></linearGradient></defs><g data-v-fde0c5aa="" id="642e05b4-1cc4-4ea7-898b-afc07d76daad" stroke="none" fill="url(#08bbe6e4-c2f3-43f6-866e-a046250bb7a3)" transform="matrix(0.05668535183372985,0,0,0.05668535183372985,24.809052266414714,121.65718050146387)"><path d="M618.6 565.8h-79.8c-3.4 0-6.6-1.8-8.3-4.7L494.2 501l-33.9 33.9c-1.8 1.8-4.3 2.8-6.9 2.8H378c-2.4 0-4.7-.9-6.5-2.5l-100.3-90.6c-3.7-3.3-4.3-8.9-1.3-12.9l123-169.4c2.1-2.9 5.7-4.4 9.3-3.9l76.6 11.9c4.4.7 7.7 4.2 8.2 8.6l5.4 55c.5 4.9-2.7 9.3-7.5 10.4l-46.4 10.8c-3 .7-6.2-.1-8.6-2.1l-15.4-13.5-23.7 61.9c10-4.3 22.1-7.4 34.5-5.8 12.6 1.6 23.6 7.7 32.8 18.1 24.8-13.7 68.3-24 100.4 11.3l39.4-21.5c3.2-1.7 7.1-1.6 10.1.5l31.3 21c4.5 3 5.6 9 2.6 13.5-3 4.4-9 5.6-13.5 2.6L602 423.4l-41.2 22.5c-4.2 2.3-9.5 1.2-12.4-2.7-33.7-44.7-84.9-10.2-87.1-8.7-2.1 1.5-4.8 2-7.3 1.6-2.5-.5-4.8-1.9-6.3-4.1-6.9-10.3-15.1-15.9-24.8-17.1-21.8-2.9-44.7 16.7-44.9 16.9-3.4 2.9-8.3 3.2-11.9.6-3.6-2.6-5.1-7.3-3.5-11.4l38.8-101.4c1.1-3 3.6-5.2 6.7-6 3.1-.8 6.3 0 8.7 2.1l22.1 19.4 33.2-7.7-3.8-39.1-63.3-9.8-114.4 157.6 91.1 82.3h67.8l33.1-33.1-12.9-25c-2.4-4.7-.7-10.4 3.9-12.9 4.6-2.6 10.4-1 13.1 3.5l57.6 95.6h66.5l13.5-63.5c1.1-5.2 6.3-8.6 11.5-7.5 5.2 1.1 8.6 6.3 7.5 11.5l-15.1 71.2c-1.1 4.4-5.1 7.6-9.6 7.6z"></path><path d="M533.3 741.7c-5.4 0-9.7-4.3-9.7-9.7v-57.9L445 532.8c-2.6-4.7-.9-10.6 3.8-13.2 4.7-2.6 10.6-.9 13.2 3.8l79.8 143.5c.8 1.4 1.2 3.1 1.2 4.7V732c0 5.3-4.3 9.7-9.7 9.7zM613.2 619.8h-61.5c-5.4 0-9.7-4.3-9.7-9.7s4.3-9.7 9.7-9.7h54l3.5-13.3c1.4-5.2 6.7-8.3 11.9-6.9 5.2 1.4 8.3 6.7 6.9 11.9l-5.4 20.5c-1.2 4.2-5 7.2-9.4 7.2zM613.2 674.8h-48.5c-5.4 0-9.7-4.3-9.7-9.7 0-5.4 4.3-9.7 9.7-9.7H606l3.3-11.4c1.5-5.1 6.9-8.1 12.1-6.6 5.1 1.5 8.1 6.9 6.6 12.1l-5.4 18.3c-1.3 4.1-5.1 7-9.4 7zM606.7 729.8h-32.4c-5.4 0-9.7-4.3-9.7-9.7s4.3-9.7 9.7-9.7h25.2l3.3-10.4c1.6-5.1 7-8 12.2-6.4 5.1 1.6 8 7 6.4 12.2L616 723c-1.3 4-5.1 6.8-9.3 6.8z"></path></g><!----></svg>